<?xml version="1.0" encoding="UTF-8" standalone="no"?>

<svg
   version="1.1"
   id="logo"
   width="600"
   height="600"
   viewBox="0 0 600 600"
   xmlns="http://www.w3.org/2000/svg">
  <defs/>
  <g transform="translate(-36.138034,-141.32665)">
    <path
       style="fill:#ffffff"
       d="m 384.24652,653.30309 c -3.65831,-15.69896 -16.14386,-26.44818 -23.11436,-34.8623 9.27762,6.65049 10.66711,-46.14672 -6.31528,-21.07801 -15.09284,9.46014 -8.76496,29.24471 -14.38155,43.05226 -0.62222,-12.55151 -3.92862,6.57071 -2.92554,-10.21789 2.32795,-15.19756 -20.46163,-34.53208 -20.55601,-38.2858 8.42276,4.74789 15.61695,11.45123 6.00202,-1.28398 -21.55498,-6.63191 24.10006,-31.71434 3.32502,-12.41303 -2.40295,8.48768 19.35992,-14.35404 2.78594,-16.24549 -7.02399,-12.74527 -15.21152,-2.81671 -11.85939,3.87885 -11.94235,-11.74095 13.91074,-34.04581 25.57624,-41.50865 -1.6011,-3.8644 17.04135,2.55896 15.7572,1.94662 -6.75254,8.09336 9.01592,18.87211 2.38216,4.30289 14.43791,6.64046 -3.29472,18.17699 -7.12215,12.80398 -0.76244,18.69247 -2.0868,7.06328 -2.27262,-5.0696 -5.97855,4.406 -18.29361,10.5128 -11.01602,16.88233 -18.13404,-0.97718 16.60095,-30.52291 -7.02349,-14.05163 -16.62964,14.18968 28.58526,24.87286 19.70342,34.41272 -11.68052,-13.52546 6.02491,14.07284 -6.67009,-0.46791 -10.26809,-4.05755 -16.49606,18.81086 -9.31193,25.34911 5.15531,11.14577 26.79662,-20.21212 22.314,-31.18868 -1.16336,-21.43378 3.23575,17.11903 2.0964,21.08467 9.81429,-7.94077 -5.17672,-46.88957 -3.80806,-42.34573 17.54333,4.97884 11.34315,-40.95043 16.97198,-19.25749 10.19898,9.64497 30.15509,19.59909 29.60127,20.76581 -5.50272,-6.25863 -13.12711,-32.14027 -12.30213,-30.07405 -2.94295,27.21421 -17.79169,-9.58311 -9.83454,-20.5545 -9.71436,-7.51047 9.33857,-34.53308 0.11178,-36.78685 -6.5453,6.36423 -19.25149,21.19335 -14.81372,5.69283 -8.57632,-6.96551 -28.26418,-21.92014 -20.65527,0.60998 1.27108,10.88771 1.42726,45.66672 4.26187,17.78966 9.61774,-14.38175 -1.535,23.04455 9.29516,27.80276 8.88653,13.47913 3.20962,16.98205 -5.0386,5.9576 -15.24269,-9.9254 -29.4722,18.49615 -34.71264,15.11314 -0.7522,-8.45229 -5.58377,-15.88769 3.8912,-13.13447 5.37671,-13.38261 2.72301,3.62054 11.57818,-11.99954 1.8858,-12.05967 -0.0416,-3.64558 -7.28448,1.5279 -1.23711,-16.13482 -1.21422,-32.50931 -2.93876,-48.43891 -10.25163,-14.52399 19.33362,-26.42404 1.65386,-37.56267 -3.72299,14.20789 -9.61447,-4.21191 1.75828,-8.24604 17.30256,-11.21821 39.69994,-27.34936 53.76689,-36.43322 -9.83213,14.8537 -33.91502,25.16459 -30.81235,45.72356 5.34272,21.00414 41.61736,31.99593 29.93711,0.21444 2.04023,-11.22226 -10.34163,-30.16203 -7.24488,-8.46285 -4.74572,12.14977 -12.04699,-26.89372 6.4101,-23.86777 14.46904,-9.87754 48.12767,-18.95359 38.94806,-41.11576 2.78574,-15.75726 14.45286,13.31805 8.48873,18.22721 -10.20078,6.38095 -32.81641,19.94325 -32.46648,27.41498 7.54572,-5.16853 25.36855,-24.17389 30.08404,-15.83212 -7.04757,13.26949 13.21756,26.10476 15.67857,21.4709 -6.86593,4.4435 -22.46217,42.51635 -6.60564,23.40505 17.79692,-7.45227 12.5868,34.80209 8.59755,7.7134 -20.23759,6.94444 12.8361,26.22251 19.16442,36.0284 6.83505,12.26983 37.43531,34.3961 15.8764,44.162 5.51505,-22.697 -29.34025,5.68965 -33.99092,4.09237 -5.36088,-15.87886 -10.74715,21.42204 -17.25472,18.2971 7.33284,-2.07152 -1.48674,24.32082 14.61542,11.40754 9.72948,-4.83082 41.94813,-16.81266 13.28665,-17.56872 -0.13311,-0.0542 32.76558,-5.93094 21.96577,7.76292 -13.07039,6.99923 -7.90276,4.71938 2.016,1.92519 -3.27672,6.56752 -45.98622,27.35145 -19.776,11.136 6.80004,-5.12042 -8.11103,1.07649 -4.99487,-4.84126 -10.64034,1.47722 -41.51317,15.53916 -14.27609,6.98896 4.72461,1.30422 -16.97148,10.39202 1.99096,2.05333 19.37786,-11.47513 -0.25031,4.60103 -2.52688,5.06147 -6.1613,3.71424 3.89087,24.65719 11.31088,25.34832 -15.6926,1.07843 -28.8291,30.52149 -25.33623,45.70941 -17.04609,-14.87808 13.8899,-34.10715 0.64471,-49.94567 -8.6123,2.2482 -3.00601,15.75409 -12.86744,2.47743 -18.9591,-4.65527 0.79963,1.10324 -6.42651,10.97502 5.99652,9.98251 7.01381,10.54921 -0.59865,8.64987 2.73425,26.53068 -2.67553,-10.74274 -14.49184,-14.00706 5.99733,-7.51666 2.8532,-8.75313 1.91091,-12.32947 12.05526,-2.31507 9.2086,-42.50525 3.54592,-13.44209 -4.59916,11.11916 -25.05259,34.66955 -6.45373,24.67785 -6.47742,13.42259 -22.52057,0.49698 -12.58298,20.74896 2.50371,6.7755 11.02918,41.16887 6.38993,33.65562 -3.20707,-8.79572 -11.41707,-33.00932 -5.92302,-10.02046 0.11033,3.37269 9.07899,22.49906 4.89086,18.63926 z m -5.0057,-70.72857 c 6.33129,-6.09407 18.39061,-25.51722 4.96929,-8.71143 -1.31963,-0.6114 -11.44533,16.83266 -4.96929,8.71143 z m -2.06413,-4.4535 c 10.26472,-16.39807 21.61892,-19.18801 1.8578,-30.22492 -7.96348,-23.43695 -8.1571,33.52464 -5.58966,3.41649 3.48349,-5.7031 1.55846,20.24566 -1.76204,24.16889 -0.19738,3.27983 4.24305,10.10984 5.4939,2.63954 z m 44.14413,2.64167 c -15.11066,-7.11553 -18.83967,0.22302 0,0 z m 3.5392,-5.14988 c 0.69034,-8.63809 -5.04266,-33.2939 -6.78535,-11.98972 -1.93962,18.32397 0.93976,-40.46486 -1.92568,-9.23652 -7.13875,6.09101 -13.07989,25.11273 8.71103,21.22624 z m -100.1792,-24.75549 c -0.14585,-0.8592 -1.89226,0.28678 0,0 z m 87.36365,-10.83423 c 15.1854,-3.18478 28.98602,-28.7241 21.16997,-21.30553 -0.93408,9.68462 -17.27878,13.75471 -24.02891,7.92793 -5.17292,2.53439 -5.34774,20.18729 2.85894,13.3776 z m -30.40365,0.69366 c -8.20264,-11.34307 -13.19642,-1.07265 0,0 z M 354.4469,527.45576 c 0.97746,-1.27147 -1.94112,1.04128 0,0 z m 57.98742,-14.31268 c 3.82453,-9.94108 -4.97882,-32.80691 6.64648,-23.96287 -4.61068,-9.62118 -18.36026,-30.02654 0.47425,-14.76583 -3.45955,-10.15718 -4.53908,-32.8711 -4.73045,-48.04722 0.18662,-11.72073 -5.30751,-22.87178 -5.96497,-34.32064 -8.12812,9.98779 -8.70403,44.959 -3.74876,43.36652 4.22234,-8.06726 2.42609,-33.42833 5.79407,-10.98996 8.02266,16.83385 -21.08624,43.23884 -13.26414,50.44682 8.64041,-29.15645 6.69502,13.56962 7.68532,23.17434 0.44573,3.7662 5.0062,17.84432 7.1082,15.09884 z m 23.83006,-1.6 c 4.8535,-12.62739 43.42564,-16.8301 14.64791,-18.24934 -8.98191,-1.56263 -10.84686,-36.87086 -22.1329,-35.33784 -0.43032,18.40202 5.97032,39.25251 5.7156,54.60263 l 1.76984,-1.01549 z m -58.26536,-51.08492 c 11.61408,-11.49087 -8.81739,4.83926 0,0 z m -4.27311,-5.74104 c -4.59727,-3.48814 -34.31738,-35.85923 -21.3328,-12.12508 6.3206,3.84992 13.54869,14.27252 21.3328,12.12508 z m 40.55491,-67.89404 c -0.387,-1.16998 -0.78922,1.13993 0,0 z M 287.80569,646.00282 c -3.70992,-15.52303 1.175,-30.55681 -13.37383,-32.79672 -16.75864,-3.43412 -4.53365,-13.67078 -3.95837,-23.51247 10.88757,-0.30512 12.37109,4.58564 4.29516,6.72946 4.72249,23.69143 19.49715,6.78368 23.90221,-7.59642 3.1905,-13.41827 -23.2765,-11.37401 -2.77926,-17.0438 -5.5697,-13.52907 -16.63697,16.83642 -11.79192,-3.15178 4.94822,-6.06643 28.60556,-24.12543 13.46822,-16.36571 -0.96362,-11.68143 -9.55106,1.74553 -7.49248,-11.67688 -9.46886,-8.45618 -27.59029,-4.49658 -23.79463,-23.20566 -0.66613,-5.89862 7.71251,17.76858 14.58803,3.78797 17.256,-20.5606 -36.08717,-14.58288 -16.39134,-0.1566 3.13136,13.15173 -0.96267,8.5553 -5.47061,5.91047 -0.52467,13.96373 15.80869,27.83087 18.24146,39.07614 4.65963,-10.86753 19.0413,-14.61518 4.554,-2.57574 -5.65017,8.55741 -6.392,23.46628 -3.21224,25.15035 -12.88762,-2.62988 -8.72873,-6.71408 -15.03539,8.97118 -3.533,11.84634 -17.89054,39.7734 -21.96747,37.51099 9.20861,-12.85869 1.13551,-10.65823 -5.79756,-1.23339 10.85097,-13.12796 12.28882,-32.92708 -4.84326,-39.77301 -10.30788,-3.16264 -21.20262,-7.19835 -6.24738,-11.23499 17.49012,0.832 -37.70485,-18.68329 -9.29824,-10.62995 14.96648,-2.96296 -17.4892,-10.98527 -19.50044,-18.52707 -8.5456,-4.96105 -26.2955,-21.52761 -15.57023,0.13468 6.07168,8.36087 4.86612,7.83167 -1.88933,0.81 13.8431,22.11591 -8.0213,-4.36871 -5.94818,-14.56214 -17.42244,-6.45112 0.95365,-4.53273 -6.23024,-6.45666 -8.95799,-6.83418 -23.08946,-8.12342 -6.38158,0.85876 -16.25347,18.26158 1.82518,41.78658 -0.31997,62.61905 1.12547,13.01296 -5.68826,23.45588 -2.98197,4.73841 5.03352,-24.866 -17.245,-43.14842 -17.05661,-67.24459 4.56338,-12.36432 -31.76316,-24.19961 -21.24146,-28.51636 7.38946,2.78991 14.84899,7.13152 1.91385,-2.59367 -5.05803,-10.1239 26.43778,16.86959 36.88472,18.21207 1.29932,-4.79061 -25.34663,-7.7898 -9.82921,-20.75587 2.29341,-13.24132 20.21725,-46.23238 25.27065,-37.13596 -12.77708,7.82962 -12.60679,25.35376 2.29658,7.90404 11.49581,-8.74119 35.01021,-37.28277 18.23564,-43.51217 2.31933,10.55549 -20.84898,19.88884 -6.89203,5.47269 5.34186,-20.45316 -29.65524,-16.39513 -26.11275,-21.32361 11.07168,-4.9726 18.31394,-11.33512 1.19023,-4.62465 -19.1681,8.06232 -15.91443,30.94952 -9.5892,46.01988 -1.26704,13.06573 -6.79836,13.82693 -4.55811,-0.51181 -15.23412,-8.26998 -1.26969,-53.9004 -25.48184,-36.44819 -23.134368,18.1125 -5.8071,41.91921 2.2118,62.34613 -8.48901,-0.27137 -23.09184,-30.18712 -23.59611,-43.78613 3.62116,-14.05389 8.44644,-46.15609 -14.805693,-28.17852 -20.906026,2.03181 -0.943069,-23.34221 -9.050725,-22.65892 15.519764,-3.99001 -6.142977,25.86713 13.254843,12.08884 13.396595,-12.35755 30.571955,-27.23669 37.250005,-42.6914 -7.18206,10.79926 -37.020898,21.99492 -13.51865,6.43557 15.31929,-9.5172 25.4156,-35.20082 27.75538,-45.5491 0.42631,7.49711 -4.89654,29.48406 3.64325,11.34696 8.6619,-18.70704 -23.04392,-63.34152 -28.27244,-25.79839 -3.14247,10.14171 5.28943,35.85115 -1.30311,37.91251 2.99764,-18.59866 -15.01583,-52.95336 12.53705,-60.47092 8.88386,-13.50188 24.46093,28.24941 26.58898,20.20589 3.83605,-18.78742 -12.23699,-29.12375 -22.48026,-36.70508 7.99548,-4.30831 35.50919,14.28128 29.90399,34.90053 7.37581,23.11191 6.52732,48.59646 1.82314,71.87911 -5.78411,9.85835 -2.46982,-27.2272 -4.54968,-31.88824 -13.95588,6.58212 -17.14975,24.4076 -17.38382,38.20477 6.36803,8.23224 20.15984,9.82591 1.22659,10.43955 -7.76469,-9.39091 -23.4001,22.22947 -6.50354,11.16535 19.58977,-5.56604 45.16886,-4.47889 60.64739,-14.68764 -10.69941,-13.84447 13.39433,6.21356 -3.64856,8.44916 11.32752,2.86847 16.66992,-5.35199 10.09551,-8.87835 23.3839,7.16796 -26.54659,21.92154 -2.15334,30.92023 21.49007,-2.48099 18.22431,-38.03214 16.46794,-54.84168 -6.30464,-3.71959 -26.33464,19.59694 -31.96906,-2.78978 -2.47661,-24.01682 5.17451,22.26051 18.72547,2.58941 15.59487,-8.42447 -0.68727,-30.31827 -8.63843,-17.32557 13.37199,15.45521 -15.10984,9.89401 -5.5903,-4.89096 7.74563,-20.77899 34.82823,-6.19507 50.63388,-13.96342 23.48307,-5.18539 25.26677,-31.524 5.69205,-42.6042 3.96826,-12.45852 0.7905,10.24777 12.87493,7.62115 14.02572,9.75 -2.0284,36.63305 -3.36315,34.67043 15.56805,-0.33528 16.0418,-43.09822 15.81654,-12.34404 -5.65025,20.75243 -38.90601,21.79577 -34.05152,49.37433 -3.26461,19.79549 -0.19344,39.86578 -6.62981,58.54216 0.68613,19.22558 -29.55075,33.27396 -13.95098,50.38235 3.23028,-20.49876 16.0899,-36.24704 19.07327,-57.10182 4.94946,-18.26667 9.06489,-38.50242 8.06768,-56.16 -3.96607,-15.46645 19.24274,-18.68459 23.2086,-22.33255 -17.87161,7.32503 -23.16647,28.79964 -2.52984,37.45046 17.53722,10.73582 34.33725,25.0221 53.11053,32.82188 13.90141,0.0324 -14.42363,19.03492 -18.07595,4.82096 -7.28259,-5.05542 -20.63768,-6.52464 -15.6711,-11.5222 -11.23994,4.26385 -17.49274,18.31305 -14.86937,25.41814 -8.77928,-9.22158 4.12119,-38.38352 -9.19556,-33.08601 14.79835,10.7013 -3.2197,5.26738 -5.89372,10.03011 -5.41029,7.03961 5.50947,29.56995 -2.33069,27.82916 -1.60925,-18.45279 -4.19821,11.03276 -7.48204,13.86468 5.56851,1.34038 36.63818,3.115 25.70803,23.50559 -2.21462,23.59711 -36.77237,3.22183 -11.89196,-1.61363 -14.57293,13.75013 17.67024,1.45752 2.15179,-7.92416 -12.94787,-5.15312 -33.60374,25.45494 -20.55782,1.45322 -20.95176,8.02461 5.68,26.4158 -10.67822,34.96179 9.54238,-4.54261 18.01006,-1.30357 5.48882,4.03355 -5.02432,24.89326 45.05329,12.71335 31.66522,-6.90427 -11.71419,-3.15353 -18.0508,-9.89486 -1.91576,-5.78955 15.35663,2.48846 17.30299,-15.66627 15.09488,-21.91663 10.44056,17.90505 -2.63206,37.39498 8.47799,54.53304 4.52254,13.62965 32.58359,17.35721 28.32396,29.19498 -12.08371,12.48095 6.88372,-2.66135 -5.37423,10.49727 -24.43662,12.19987 3.9635,28.83452 3.4111,34.70327 -10.01883,-3.92589 -12.2927,18.32713 -22.72384,24.29147 -2.7645,9.54845 0.17257,37.27039 -4.08495,34.77889 z m -29.50611,-45.89973 c 8.6071,-11.741 20.20508,-38.29204 8.82893,-38.7421 3.29395,31.64331 -5.97266,-28.54584 -15.55589,-6.35217 -6.58271,13.8342 -18.08104,6.30671 -5.46611,-3.86573 9.3516,-13.74193 -22.12215,16.92355 -2.11106,16.16 14.10794,7.67201 9.2925,8.27407 -2.87643,3.05375 -16.74738,5.73816 4.94083,16.51863 -0.51724,18.35024 -0.77019,-3.74671 16.88235,29.19693 17.6978,11.39601 z m -26.41237,-30.08612 c 0.16179,-2.44966 -23.58658,-15.22096 -8.32639,-11.33546 -8.54515,-2.34268 -24.41928,-18.35706 -5.24659,-14.36438 -12.44434,9.96423 21.57064,19.836 20.31903,0.22512 -1.43852,-5.84302 -13.4925,1.12784 -2.93418,-7.29266 10.49866,9.86509 27.48091,-17.53541 17.39245,-13.46651 0.6476,11.8546 -29.35455,4.91343 -28.94455,7.51636 7.31971,-5.78113 36.84258,2.53656 17.63603,-9.91594 -16.91022,-5.81852 -29.93435,15.20214 -42.15072,14.86241 -8.54817,-10.7894 30.28906,-31.08313 2.73008,-19.09356 -8.3689,5.22243 9.2265,-16.23161 -5.82067,-7.32224 -6.69533,-0.95548 -3.33629,-15.18816 1.8101,-4.21191 7.99403,-14.81675 8.37053,-32.28899 24.8916,-35.11199 -19.54894,-10.54621 -32.29243,18.0255 -44.87221,29.11689 -14.64961,17.80184 22.81264,15.27458 13.23472,33.08679 0.20054,-19.02124 -36.99294,-9.01591 -12.60202,-1.32759 13.21778,7.84058 31.10875,21.08952 24.72047,21.96877 10.12802,8.29474 -17.88864,-8.88112 -2.23625,1.35207 11.93397,2.13487 18.10577,16.31827 30.3991,15.31385 z m 78.7115,-30.29822 c -6.38068,-5.80027 -38.92968,-25.03296 -20.52914,-9.34231 5.15278,2.16406 16.40562,13.39594 20.52914,9.34231 z M 135.65927,345.22351 c 3.41666,-6.44293 -6.01759,9.2518 0,0 z M 518.68083,605.3633 c -10.58378,-20.85076 7.77618,-45.57208 -3.8266,-66.49229 -1.11755,-12.69309 -23.07238,-19.53423 -24.85567,-10.48381 22.65834,-4.3389 6.84353,9.4618 -1.80609,10.48338 12.57088,10.27752 2.26751,11.5611 -5.26178,-0.13204 -5.99442,-15.50387 12.21577,-23.66146 19.11673,-24.80883 -0.63526,-13.67314 -17.06235,-19.37486 -18.66868,-31.97064 -4.68028,-22.44741 -8.37231,-46.56878 -0.93119,-69.21623 5.07733,-9.69155 -4.42579,-30.37082 7.75327,-30.50455 -15.74666,12.56604 38.48716,10.86441 10.16,6.18133 -10.47861,-3.36018 -5.50564,-13.51541 -0.74239,-4.3311 10.07731,3.34243 32.4259,10.23544 36.87218,1.02523 -2.64221,-3.98972 -21.17691,5.85707 -16.09533,-10.78406 2.43528,-10.5072 6.44349,16.01501 9.07275,-1.67204 4.46469,-13.68961 -15.8284,-55.54124 -14.65218,-20.39996 1.17594,13.11943 -12.09728,28.17714 -5.74271,8.74674 1.54923,-19.06842 -3.83802,-39.12977 4.77575,-57.07918 1.94497,-19.33449 8.76914,-37.73936 26.48199,-45.18235 3.31072,-10.71353 1.71851,16.59607 -10.14012,14.13025 -5.60072,7.3863 -11.03362,36.99998 0.12517,15.0793 16.54261,-22.28003 39.89123,8.36583 31.16394,27.19039 -1.2773,11.35268 -5.53749,31.43089 -5.04411,7.2 9.91165,-19.52914 -16.17124,-50.21915 -24.77621,-19.53172 -7.67857,15.06621 7.49209,45.72791 15.61242,50.82239 -7.1376,-7.35494 -10.83466,-30.99928 -3.65435,-30.70854 -3.92045,20.29239 16.52799,39.18811 28.683,53.98461 17.81299,21.21987 -23.35399,-16.55968 -7.61982,3.37676 10.0884,7.69013 35.26569,33.13884 29.31917,4.18074 7.89905,-4.53724 10.08275,1.35965 2.21989,1.96515 9.54062,14.01696 -2.23854,28.83262 -16.80478,15.19065 -18.44026,-2.78837 -6.18476,25.25458 -9.23682,37.96214 -1.25909,15.93073 -14.48626,39.71389 -20.14794,47.09056 0.0858,-21.27133 20.3752,-43.6914 8.05191,-65.30098 -6.32478,-17.43421 -26.68934,-8.14289 -21.70856,7.60474 -2.66632,8.57207 -15.83221,34.46865 3.545,25.43178 -13.32232,15.8212 -22.19842,-12.61435 -11.86974,-20.48134 -1.97519,-17.82116 -21.4959,-31.98069 -30.19176,-9.02523 12.26039,-7.4417 15.26085,-4.60976 2.54433,3.34303 -10.94605,15.88811 9.04614,15.05083 13.4272,27.44133 4.88323,11.55339 -24.02504,-10.05952 -18.42021,9.05402 -1.77303,9.73188 23.72347,27.99784 21.29737,23.55146 -6.66075,-7.30821 -0.37173,-30.32551 1.29354,-10.17519 1.53729,18.74594 19.25903,31.99871 27.8814,25.41691 -8.589,3.58988 -31.34724,11.16923 -8.4,5.09157 -18.23927,10.68733 25.25685,-9.25968 23.17543,-9.15945 -13.79356,8.24494 -15.43876,15.03015 -9.5972,15.11292 -8.86961,2.41454 -42.48595,11.62018 -15.49823,10.2806 -0.24352,19.9756 -10.72631,37.65035 -13.62123,57.35954 -3.08711,4.56829 1.18312,25.21941 -3.25874,23.14201 z M 400.22609,566.15642 c 0.4619,-0.85224 0.14259,1.37968 0,0 z m -91.10108,-38.71961 c -26.02654,-9.81255 -20.2311,-37.03392 -20.14219,-58.74746 -0.009,-20.42139 -2.51647,-46.35897 -2.462,-63.62744 12.3056,0.0169 21.36674,10.49627 20.3407,18.30753 6.14585,-14.74758 32.99648,-18.96722 33.82633,-32.48319 -4.4501,-13.32664 -17.00539,-40.72013 -32.55498,-35.84628 0.85648,-8.39951 2.42756,-16.06432 -4.57205,-4.64779 0.88854,12.35434 10.2141,32.18319 11.84,37.69546 -7.35927,-3.46897 -12.15133,-18.53259 -7.82989,-1.53561 21.18726,17.26994 -19.50804,-5.84824 -24.81029,-11.99181 -8.59364,-10.99235 -10.83073,-15.97473 0.73064,-8.79594 6.0648,-9.57617 10.47707,-33.0407 0.76317,-11.58276 -8.34729,9.65256 9.7764,-20.86963 0.2803,-27.07515 -4.4739,-6.87625 -0.92099,-32.78086 1.41032,-30.14511 -4.26569,8.70134 4.56953,34.18181 3.22266,11.57063 -0.60123,-20.9907 29.00473,-54.52 48.90387,-33.16535 17.81975,13.75384 -31.0566,46.26631 -7.58333,22.79231 14.87452,-22.02443 -19.17334,-29.61574 -25.37299,-7.64978 -8.06459,14.21319 2.73141,28.38784 5.76189,41.67856 8.81184,8.99052 29.44706,27.8215 34.17837,28.77482 -10.30508,-4.31223 -8.37213,-28.04034 -3.4589,-7.89939 16.24318,3.54479 30.11989,36.83628 39.99361,14.33273 -6.68892,19.80276 -30.46545,28.31977 -46.74824,39.64025 -13.58209,7.17772 -22.20285,28.28478 -21.12773,35.1572 -18.95315,-8.15421 2.36221,27.48585 -9.45859,36.46677 14.78965,-7.81195 1.87769,-40.91335 23.10362,-37.88307 -15.84952,5.45111 -0.71016,26.5411 -12.89268,36.10715 -8.93116,14.1897 -3.03961,0.57452 4.43355,3.98047 -10.69706,1.32505 -8.4253,35.74796 -16.92131,27.67083 -6.80841,4.4977 12.22261,18.03814 7.14614,18.90142 z m -5.56419,-144.13373 c -0.81758,-1.14798 -0.81758,1.14798 0,0 z m 173.42404,99.85021 c -2.11637,-10.43721 -28.16487,-30.82882 -20.46403,-33.74612 20.31808,16.3982 -7.98616,-21.10797 4.49821,-31.13473 9.18593,-9.80635 -8.55862,-51.89416 -10.89909,-27.16483 13.07204,18.13994 -16.29426,-5.51184 -5.62263,-16.87645 9.07692,-15.21301 1.56641,-35.17039 -16.41924,-39.08203 -11.31635,-9.36465 -12.66586,-15.48361 2.61018,-5.59239 12.67449,7.8063 17.10749,-1.19109 2.47258,-5.12671 -12.86615,-0.41751 -24.58583,-24.23732 -20.00602,-26.68966 6.85215,17.05384 30.75037,25.44719 44.86195,29.1228 8.6475,-6.12594 29.75219,-5.75723 25.41951,10.45244 -11.68389,-19.81387 -17.28748,4.14164 -9.23379,14.45333 2.02358,10.25955 13.45841,27.21717 3.11585,22.40521 -16.41292,7.62072 9.39132,17.82343 -0.90338,30.77703 -3.71517,25.34222 -3.78665,51.74578 4.78781,76.02822 -10.09103,-8.35107 2.85702,2.39313 -4.21791,2.17389 z M 395.97962,378.33113 c -5.70059,-17.6286 -21.26861,-28.57661 -35.33597,-40.14805 -4.81019,-7.38164 -14.18908,-9.73919 0.48664,-7.35674 8.49243,3.13507 9.31268,-19.2611 7.03618,-26.79075 -8.62859,-18.01723 -17.77041,3.4461 -14.61092,13.78811 -2.11987,1.72322 -10.05123,-36.97519 13.36043,-27.74056 23.04277,9.32862 4.72879,35.13816 19.46394,47.77994 10.14882,-8.34574 9.39483,-33.27557 15.68446,-36.87157 -3.03744,10.84993 -0.83367,52.75333 5.12141,23.21848 -7.41933,8.68571 18.33067,36.64946 3.33072,46.84985 -4.67429,1.6994 -8.98598,8.80301 -14.53689,7.27129 z"
    />
  </g>
</svg>
